<svg xmlns="http://www.w3.org/2000/svg" width="248" height="78" viewBox="0 0 248 78">
    <g fill="none" fill-rule="nonzero">
        <path fill="#1C3F7B" d="M138.7 19.2l6.7-13.8h.1l7.4 13.8h7.6l-9.8-17.9h-6.4l-8.9 17.9h3.3zM33.9 11.5l10.4-.1c-.2 4.1-3.4 6.1-7 6.1-3.1 0-6.5-1.5-8.4-4.4l-3.4 2c3.3 3.5 6.5 4.8 11.9 4.8 6.2 0 14.5-2.6 14.5-9.5 0-7.2-7.8-9.5-14.4-9.5-4.7 0-8.6.8-12 4.1l3.4 2c2.3-2.4 5.5-3.7 8.3-3.7 3.5 0 6.5 1.8 7.1 5.6l-10.4-.2v2.8zm138.6 8.3c8.9 0 13.9-4.7 13.9-9.5s-5-9.5-13.9-9.5-13.9 4.8-13.9 9.5c0 4.8 5 9.5 13.9 9.5zM118 17.2v2.6h6.8v-2.6h.8c4.8 0 11.7-1.3 11.7-7 0-6-7.5-7-11.7-7h-.8V.7H118v2.4h-.8c-4.3 0-11.7 1-11.7 7 0 5.7 7 7 11.7 7h.8v.1zm12.6-7c0 3.1-2.4 4.7-5.2 4.7h-.8V5.5h.8c2.9 0 5.2 1.7 5.2 4.7zm-65.1 2.5c4.1 0 9.7-.8 9.7-5.8 0-5.2-6.3-5.5-10-5.5H53.6v17.9h6.8v-6.5h5.1v-.1zm2.7-5.8c0 2.1-2.2 3-4.3 3h-3.4V4h3.4c2 0 4.3.7 4.3 2.9zM11.6 5.4l3.5 6.3H8.2l3.3-6.3h.1zm4.9 8.7l2.8 5.1h7.6L16.6 1.3h-6.3L.8 19.2h3.5L7 14.1h9.5zM185.5 4h7.3v15.2h6.8V4h7.4V1.3h-21.4V4h-.1zm-73.3 6.2c0-2.9 2.2-4.7 5.2-4.7h.8v9.4h-.8c-2.8 0-5.2-1.6-5.2-4.7zm60.3 7.4c-4.4 0-6.5-3.2-6.5-7.3s2.2-7.3 6.5-7.3 6.5 3.2 6.5 7.3c.1 4.1-2.1 7.3-6.5 7.3zm-82.7 2.2c8.9 0 13.9-4.7 13.9-9.5S98.7.8 89.8.8s-13.9 4.8-13.9 9.5c0 4.8 5 9.5 13.9 9.5zm0-2.2c-4.4 0-6.5-3.2-6.5-7.3S85.5 3 89.8 3s6.5 3.2 6.5 7.3c.1 4.1-2.1 7.3-6.5 7.3z"/>
        <path fill="#C21D38" d="M102.2 27.4c-9.5 0-15.8 5.4-15.8 14 0 8.7 6.2 14.1 15.8 14.1 9.5 0 15.8-5.4 15.8-14.1-.1-8.6-6.3-14-15.8-14zm0 24.5c-4.6 0-8-3.2-8-10.5 0-7.2 3.4-10.5 8-10.5 4.7 0 8 3.3 8 10.5 0 7.3-3.3 10.5-8 10.5zM81.1 28.3H58.4v26.4h14.7c7.3 0 11-3.7 11-8.2 0-4.4-3.6-8.1-11-8.1h-7.3v-6.8H81v-3.3h.1zm-8.8 23H66v-9.5h6.3c2.9 0 4.2 2 4.2 4.7s-1.3 4.8-3.8 4.8h-.4zm132.6-22.1c-2.7-1.2-5.7-1.8-8.6-1.8-8.2 0-15.8 4.6-15.8 14 0 9.2 8 14 16.3 14 2.9 0 5.8-.6 8.5-1.8v-3.9c-2.4 1.2-5.1 1.9-7.6 1.9-5 0-9.4-2.8-9.4-10.2 0-7.4 4.3-10 9.3-10 2.5 0 5.1.7 7.4 1.7v-3.9h-.1zm-62.8 25.5h7.5V28.3h-7.5V39h-12.8V28.3h-7.5v26.4h7.5V42.9h12.8v11.8zm17.9 0h6.5l15.7-26.4h-5.5l-8.2 13.6-7.5-13.6h-8.5l12 20.6-4.5 5.8z"/>
        <path fill="#C21D38" d="M247.9 25.6c-.5-.4-1.9 1.1-1.9 1.1l-.9.8-9.1.3-.2.7s5.4 1.1 7.1 2C203.1 70.8 156.8 72 129.4 72c-42.9 0-75.2-12.5-75.2-12.5s32.3 17.8 80 17.8c55 0 86.1-22 109.1-46.4.9 1.5 2.3 6.9 2.3 6.9l.7-.2-.1-9.1.8-.9c-.1-.1 1.4-1.6.9-2z"/>
    </g>
</svg>
