<svg xmlns="http://www.w3.org/2000/svg" viewBox="0 0 33.18 9.95"><path fill="#ee2e2e" d="M3.15 0c.67 0 .88.49 1.06.97l1.86 5.17c.02.04 0 .1-.06.13L5 6.67a.1.1 0 0 1-.13-.07L4.44 5.4H1.86L1.43 6.6c-.02.05-.08.09-.13.06L.3 6.26a.1.1 0 0 1-.06-.12L2.09.97C2.26.5 2.5 0 3.15 0zM.1 8.62c-.06 0-.1.04-.1.1v1.12c0 .06.04.1.1.1h6.1c.06 0 .1-.04.1-.1V8.72c0-.06-.04-.1-.1-.1zm3.05-7.05l-.87 2.64h1.75l-.87-2.64zm22.72 3.88c0 .3-.16.5-.47.5-.11 0-.21 0-.36-.05V5c.06-.02.21-.04.36-.04.32.03.47.17.47.49zm.62-.04c0-.55-.32-.93-1-.93-.16 0-.28.01-.45.06v-.8a4.15 4.15 0 0 1 1.18 0l.01-.46a4.11 4.11 0 0 0-1.81.04v2.95c.32.12.64.17.96.17.73 0 1.11-.4 1.11-1.03zm-7.01-.16c0 .41-.17.68-.43.68-.11 0-.17 0-.3-.05V4.65c.14-.07.21-.07.33-.07.26 0 .4.22.4.67zm-2.04.01c0-.45.13-.69.4-.69.11 0 .19 0 .33.07v1.24c-.13.04-.19.04-.3.04-.3 0-.43-.25-.43-.66zm1.31 1.85v-.8c.07.04.22.1.47.1.5 0 .85-.4.85-1.17 0-.82-.36-1.17-.95-1.17a.75.75 0 0 0-.37.08V3.2h-.58v.95a.75.75 0 0 0-.37-.07c-.59 0-.95.37-.95 1.18 0 .75.33 1.16.86 1.16a.9.9 0 0 0 .47-.12v.81zm-4.4-.73V4.22a2.95 2.95 0 0 0-1.77 0v1.11c0 .3 0 .39-.03.49a.51.51 0 0 1-.2.27l.16.34c.47-.13.64-.34.64-1v-.81c.16-.02.19-.03.31-.03.13 0 .15 0 .3.03v1.76zm7.16-.47a.84.84 0 0 1-.31.05c-.2 0-.33-.08-.33-.3 0-.23.15-.3.44-.3a.5.5 0 0 1 .17.02v.17c0 .17 0 .28.03.36zm.74.26c-.16-.24-.2-.38-.2-.68v-.6c0-.32-.03-.44-.12-.57-.12-.17-.31-.24-.68-.24-.26 0-.51.03-.75.09l.1.43c.15-.02.32-.04.45-.04.38 0 .43.06.43.35v.11a1.18 1.18 0 0 0-.3-.03c-.58 0-.88.28-.88.76 0 .44.32.69.72.69.15 0 .3-.03.43-.08.07-.03.1-.06.2-.12.06.09.18.17.22.18zm5.67-.26a.84.84 0 0 1-.31.05c-.2 0-.33-.08-.33-.3 0-.23.15-.3.44-.3.07 0 .14 0 .17.02v.17c0 .17.01.28.03.36zm.74.26c-.16-.24-.2-.38-.2-.68v-.6c0-.32-.03-.44-.11-.57-.12-.17-.32-.24-.68-.24-.26 0-.51.03-.75.09l.09.43c.16-.02.33-.04.46-.04.38 0 .43.06.43.35v.11a1.14 1.14 0 0 0-.3-.03c-.58 0-.89.28-.89.76 0 .44.33.69.73.69.15 0 .3-.03.43-.08.07-.03.1-.06.2-.12.06.09.17.17.22.18zM16 5.6c0 .21-.07.37-.35.37-.1 0-.14 0-.26-.04V5.3c.16-.03.17-.04.26-.04.26 0 .35.14.35.35zm-1.19-1.5v2.15c.27.12.58.17.85.17.62 0 .95-.32.95-.85 0-.48-.3-.78-.85-.78-.14 0-.22.01-.37.05v-.73zm15.98 2.27V4.14h-.59v.85h-.65v-.85h-.59v2.24h.59v-.92h.65v.92zm2.39 0s-.32-.7-.4-.84c-.09-.17-.17-.3-.34-.34v-.01c.11-.02.21-.1.31-.32s.13-.27.19-.32c.06-.05.13-.03.13-.03l.03-.4a1.1 1.1 0 0 0-.27-.01.42.42 0 0 0-.32.13 1 1 0 0 0-.16.26l-.15.32c-.06.12-.08.17-.24.17h-.1v-.85h-.58v2.24h.59v-.92h.08c.16 0 .19.05.28.22l.3.7zm-21.68 0h.68l-1.02-3.13c-.1-.04-.23-.06-.37-.06-.16 0-.21.02-.33.06L9.4 6.38h.64l.2-.62h1.1l.17.62zm-1.13-1.14l.22-.73.18-.65h.02a24.34 24.34 0 0 0 .37 1.37h-.79zm12.87-.36c-.2 0-.37.17-.37.38 0 .2.16.37.37.37.2 0 .37-.17.37-.37 0-.2-.17-.38-.37-.38z"/></svg>