<?xml version="1.0" encoding="UTF-8"?>
<svg width="111px" height="27px" viewBox="0 0 111 27" version="1.1" xmlns="http://www.w3.org/2000/svg"
     xmlns:xlink="http://www.w3.org/1999/xlink">
    <!-- Generator: Sketch 46 (44423) - http://www.bohemiancoding.com/sketch -->
    <title>Halva Logo Red@3x</title>
    <desc>Created with Sketch.</desc>
    <defs></defs>
    <g id="Symbols" stroke="none" stroke-width="1" fill="none" fill-rule="evenodd">
        <g id="Footer" transform="translate(-393.000000, -81.000000)" fill="#FF4E50">
            <g id="Halva-Logo-Red">
                <path d="M417.290426,106.81286 L417.291524,106.81286 C417.291524,106.81286 417.396944,106.986773 417.186104,106.986773 L407.698298,106.986773 C407.522597,106.986773 407.487457,106.81286 407.487457,106.81286 L403.692335,97.6302515 C400.318893,99.9954689 402.181314,103.751991 402.848974,104.447643 C403.130094,104.899817 401.337953,107.751991 398.105071,107.751991 C395.047889,107.751991 392.834067,105.282425 393.009768,102.221556 C393.220608,98.6389471 397.12115,94.9867732 402.111034,93.5606863 L396.41835,82.3259037 C396.41835,82.3259037 396.34807,82.0824254 396.62919,82.0824254 L405.519616,82.0824254 C405.695316,82.0824254 405.765596,82.2911211 405.765596,82.2911211 L409.420159,91.5085124 C413.039581,89.4215558 410.96632,84.6215558 410.228379,83.9259037 C409.982399,83.6824254 410.96632,81.5259037 414.199202,81.2476428 C417.713204,80.9345993 419.927026,83.3345993 419.856746,86.4302515 C419.786466,90.0824254 416.236225,93.7693819 411.140922,95.2650341 L417.290426,106.81286 Z M437.953858,99.717208 L437.953858,99.717208 C437.286198,105.247643 439.81628,104.065034 439.359459,105.004165 C438.867499,106.117208 436.794237,107.47373 434.826396,107.47373 C432.401734,107.47373 430.679873,105.978078 430.539313,103.508512 C429.063432,105.769382 426.955031,107.438947 424.495229,107.438947 C420.067586,107.438947 418.205165,102.186773 418.802545,97.5259037 C419.399926,92.7606863 422.421968,88.517208 427.025311,88.517208 C429.449972,88.517208 430.996133,89.8737298 431.839494,91.8215558 C432.015194,90.3606863 432.155754,89.4215558 432.155754,89.4215558 C432.155754,89.2476428 432.366594,89.2128602 432.366594,89.2128602 L439.394599,89.2128602 C439.394599,89.2128602 439.500019,89.2476428 439.500019,89.3867732 C439.500019,89.3867732 438.270118,97.317208 437.953858,99.717208 Z M428.079512,102.638947 L428.079512,102.638947 C429.801373,102.638947 430.996133,100.551991 431.312394,97.943295 C431.628654,95.3345993 430.960993,93.2128602 429.239132,93.2128602 C427.517271,93.2128602 426.35765,95.3345993 426.04139,97.943295 C425.72513,100.551991 426.35765,102.638947 428.079512,102.638947 Z M462.059915,89.6639471 L462.059915,89.6639471 C461.954495,90.4639471 459.916373,106.811773 459.916373,106.811773 C459.916373,106.985686 459.775813,106.985686 459.775813,106.985686 L452.993789,106.985686 C452.993789,106.985686 452.853228,106.985686 452.853228,106.811773 C452.853228,106.811773 453.977709,97.8726428 454.61023,92.7248167 L451.763888,92.7248167 C451.623328,95.9595993 451.201647,99.0204689 450.498847,101.768295 C449.444646,105.942208 447.476805,107.750904 444.630463,107.750904 C441.362441,107.750904 440.48394,104.655251 440.58936,103.924817 C440.65964,103.263947 442.838322,103.020469 444.841303,98.0117732 C445.895504,95.2987298 446.563164,89.6987298 446.563164,89.6987298 C446.563164,89.5595993 446.668584,89.5248167 446.703724,89.5248167 C451.553048,88.4813384 456.507791,88.4117732 461.989635,89.5248167 L461.954495,89.5248167 C461.989635,89.5248167 462.059915,89.5595993 462.059915,89.6639471 Z M471.301741,93.5248167 C475.307704,92.168295 480.965248,93.2117732 481.351788,98.1509037 C481.773468,103.785686 477.275545,107.611773 471.828841,107.611773 C466.522698,107.611773 463.641216,103.646556 463.641216,98.8465558 C463.641216,91.2639471 468.174279,81.2117732 476.397044,81.0030776 C483.495329,80.7943819 485.814571,91.2639471 471.477441,92.8291645 L471.301741,93.5248167 Z M475.132004,85.5595993 L475.132004,85.5595993 C473.620983,85.5595993 472.601922,88.968295 472.250522,90.1856863 C472.250522,90.1856863 475.729384,88.6204689 476.010504,86.4987298 C476.045644,86.0465558 476.010504,85.5595993 475.132004,85.5595993 Z M474.991444,99.8204689 L474.991444,99.8204689 C475.096864,97.942208 474.534623,96.7248167 472.777622,96.4117732 C471.863981,96.2726428 470.739501,96.6204689 470.739501,96.6204689 C470.45838,98.1509037 469.6853,103.681338 472.250522,103.681338 C474.077803,103.681338 474.956303,100.829165 474.991444,99.8204689 Z M502.365522,99.7161211 L502.365522,99.7161211 C501.697862,105.246556 504.227943,104.063947 503.771123,105.003078 C503.279163,106.116121 501.205901,107.472643 499.23806,107.472643 C496.813398,107.472643 495.091537,105.976991 494.950977,103.507425 C493.475096,105.768295 491.366695,107.43786 488.906893,107.43786 C484.47925,107.43786 482.616829,102.185686 483.214209,97.5248167 C483.81159,92.7595993 486.833632,88.5161211 491.436975,88.5161211 C493.861636,88.5161211 495.407797,89.8726428 496.251158,91.8204689 C496.426858,90.3595993 496.567418,89.4204689 496.567418,89.4204689 C496.567418,89.2465558 496.778258,89.2117732 496.778258,89.2117732 L503.806263,89.2117732 C503.806263,89.2117732 503.911683,89.2465558 503.911683,89.3856863 C503.911683,89.3856863 502.681782,97.3161211 502.365522,99.7161211 Z M492.491175,102.63786 L492.491175,102.63786 C494.213037,102.63786 495.407797,100.550904 495.724058,97.942208 C496.040318,95.3335124 495.372657,93.2117732 493.650796,93.2117732 C491.928935,93.2117732 490.769314,95.3335124 490.453054,97.942208 C490.136794,100.550904 490.769314,102.63786 492.491175,102.63786 Z"></path>
            </g>
        </g>
    </g>
</svg>