<svg xmlns="http://www.w3.org/2000/svg" width="51" height="32" viewBox="0 0 51 32">
    <path fill="#C81733" fill-rule="nonzero" d="M9.625.407v9.485H7.29V6.37H3.474v3.568H1.139V.452h2.335v3.794H7.29V.452h2.335V.407zM36.562 9.89h-2.334V5.15L32.118 8.4h-1.303l-2.11-3.297v4.787h-2.334V.407h1.75l3.323 5.059 3.322-5.06h1.751v9.486h.045zM18.02.001c-3.727 0-6.735 2.89-6.735 6.458 0 1.264.36 2.44 1.033 3.432h3.233a4.137 4.137 0 0 1-1.616-3.296c0-2.259 1.84-4.11 4.085-4.11s4.086 1.851 4.086 4.11c0 1.355-.629 2.529-1.617 3.296h3.233c.628-.993 1.033-2.168 1.033-3.432C24.754 2.891 21.745 0 18.02 0zm-2.276 7.858c.314.949 1.168 1.626 2.2 1.626 1.033 0 1.886-.677 2.2-1.626h-4.4zm25.008-5.323v1.717h4.175V6.24h-4.175v1.626h4.758v2.032h-7.138V.413h7.138v2.033h-4.758v.09zM9.265 29.256c0 1.582-1.257 2.62-3.367 2.62H1.139v-9.485h4.49c2.065 0 3.233.994 3.233 2.53 0 .858-.495 1.806-1.303 2.077 1.123.271 1.706 1.265 1.706 2.259zm-5.847-4.925v1.987h1.75c.899 0 1.392-.452 1.392-1.039 0-.588-.493-.903-1.391-.903H3.418v-.045zm3.502 4.605c0-.587-.494-.903-1.347-.903H3.418v1.897h2.11c.943 0 1.392-.407 1.392-.994zm9.507 1.314H12.43l-.628 1.626H9.289l3.996-9.485h2.244l3.996 9.486H17.01l-.584-1.627zm-.768-1.919l-1.257-3.207-1.258 3.207h2.515zm13.336-5.94v9.486h-1.796l-4.535-5.195v5.194H20.33v-9.485h1.796l4.534 5.33v-5.33h2.335zm5.752 6.005l-1.391 1.626v1.943H31.02v-9.486h2.335v4.336l3.77-4.336h2.784l-3.591 4.155 3.906 5.33h-2.918l-2.56-3.568zm-17.867-7.54l-1.796-2.754h-1.751v2.755h-2.38v-9.485h4.13c2.336 0 3.907 1.265 3.907 3.342 0 1.22-.584 2.259-1.572 2.846l2.2 3.297H16.88zm-3.648-4.839h1.751c.898 0 1.616-.497 1.616-1.265 0-.767-.718-1.264-1.616-1.264h-1.751v2.529zm9.828-2.522v1.716h4.176v1.987H23.06v1.626h4.76v2.033h-7.14v-9.485h7.14v2.033h-4.76v.09zm15.228 2.663c0 2.8-2.11 4.788-5.074 4.788h-3.77V11.46h3.77c2.919-.045 5.074 1.897 5.074 4.697zm-2.348-.008c0-1.446-1.168-2.574-2.694-2.574H31.81v5.238h1.437c1.526-.045 2.694-1.174 2.694-2.664zm6.003-4.778v9.486h-2.335v-9.486h2.335zm8.98 2.123h-2.694v7.362h-2.334v-7.362H43.2v-2.123h7.722v2.123zM7.138 17.516c-.359.858-1.123 1.4-2.155 1.4-1.526 0-2.604-1.129-2.604-2.71 0-1.58 1.078-2.709 2.604-2.709 1.032 0 1.796.497 2.155 1.4h2.469c-.494-2.168-2.244-3.613-4.624-3.613C2.155 11.284 0 13.36 0 16.207c0 2.845 2.155 4.922 4.983 4.922 2.38 0 4.13-1.445 4.624-3.613H7.138z"/>
</svg>
