<?xml version="1.0" encoding="UTF-8"?>
<svg width="402px" height="85px" viewBox="0 0 402 85" version="1.1" xmlns="http://www.w3.org/2000/svg" xmlns:xlink="http://www.w3.org/1999/xlink">
    <!-- Generator: Sketch 45 (43475) - http://www.bohemiancoding.com/sketch -->
    <title>Group</title>
    <desc>Created with Sketch.</desc>
    <defs></defs>
    <g id="Gideline" stroke="none" stroke-width="1" fill="none" fill-rule="evenodd">
        <g id="Logo-New" transform="translate(0.000000, -36.000000)" fill-rule="nonzero" fill="#312E2A">
            <g id="Group" transform="translate(0.000000, 36.000000)">
                <polygon id="Shape" points="163 14.5156269 186.895926 14.5156269 186.895926 78.5454545 202.781064 78.5454545 202.781064 14.5156269 226.803681 14.5156269 226.803681 0 163 0"></polygon>
                <path d="M127.916116,48.8453233 C127.916116,59.9591168 122.243378,66.9261191 111.90184,66.9261191 C101.560303,66.9261191 95.8875649,59.9591168 95.8875649,48.8453233 L95.8875649,0 L80,0 L80,47.8944559 C80,68.874075 92.8367626,81 111.90184,81 C130.966918,81 143.803681,68.874075 143.803681,47.8944559 L143.803681,0 L127.916116,0 L127.916116,48.8453233 Z" id="Shape"></path>
                <path d="M46.1133426,36.3345455 C49.8318482,33.4836364 52.3786372,28.3733333 52.3786372,21.8860606 C52.3689535,8.30060606 41.5136287,0 28.082464,0 L0,0 L0,78.5454545 L33.718324,78.5454545 C47.8467085,78.5454545 58.8957055,69.750303 58.8957055,55.4763636 C58.8860219,44.9551515 52.8821848,38.7878788 46.1133426,36.3345455 Z M15.7261798,13.7890909 L26.697708,13.7890909 C32.8564829,13.7890909 36.6718245,16.9309091 36.6718245,22.710303 C36.6718245,27.8981818 33.5052846,31.8836364 26.697708,31.8836364 L15.7261798,31.8836364 L15.7261798,13.7890909 Z M32.4110369,64.6981818 L15.7261798,64.6981818 L15.7261798,44.8290909 L32.4110369,44.8290909 C38.9377889,44.8290909 43.3147798,48.5139394 43.3147798,54.8363636 C43.3147798,61.1587879 39.2089299,64.7078788 32.4110369,64.7078788 L32.4110369,64.6981818 Z" id="Shape"></path>
                <path d="M386.177799,53.0011369 C380.499865,52.9290142 375.340785,56.2938434 373.117777,61.5190786 C370.894769,66.7443137 372.048227,72.7947994 376.037713,76.8356608 C380.027199,80.8765221 386.062369,82.1072366 391.315523,79.9511692 C396.568678,77.7951017 399.99913,72.6793843 399.999588,67.0009185 C400.027979,63.3100855 398.586566,59.759652 395.993442,57.1331352 C393.400319,54.5066185 389.868645,53.0199233 386.177799,53.0011369 Z" id="Shape"></path>
                <g id="Group-3" transform="translate(292.000000, 0.000000)">
                    <polygon id="Shape" points="46.7197641 0 16.6564417 39.2775788 46.7197641 78.5454545 65.7361963 78.5454545 34.7457243 39.2775788 65.7361963 0"></polygon>
                    <rect id="Rectangle-path" x="0.478527607" y="0" width="14.7239264" height="78.5454545"></rect>
                </g>
                <polygon id="Rectangle-path" points="250 0 266.723926 0 266.723926 78.5454545 250 78.5454545"></polygon>
            </g>
        </g>
    </g>
</svg>