<svg width="48" height="48" xmlns="http://www.w3.org/2000/svg"><g fill="#000" fill-rule="nonzero" fill-opacity=".54"><path d="M36.243 23.566L18.276 12.132a.87.87 0 0 0-.842-.044.757.757 0 0 0-.434.674v22.866c0 .283.167.542.435.674a.86.86 0 0 0 .841-.044l17.967-11.433a.75.75 0 0 0 .357-.63.75.75 0 0 0-.357-.63zm-17.61 10.62V14.205l15.7 9.99-15.7 9.99z"/><path d="M24 0C10.766 0 0 10.766 0 24s10.766 24 24 24 24-10.766 24-24S37.234 0 24 0zm0 46.4C11.649 46.4 1.6 36.351 1.6 24 1.6 11.649 11.649 1.6 24 1.6c12.351 0 22.4 10.049 22.4 22.4 0 12.351-10.049 22.4-22.4 22.4z"/></g></svg>