<svg xmlns="http://www.w3.org/2000/svg" viewBox="0 0 146 26"><path fill="#1A1918" fill-rule="evenodd" d="M59.915 8.037h2.1c1.413 0 2.394.592 2.394 1.854 0 1.558-1.237 1.972-2.415 1.972h-2.08V8.037zm77.197 5.64h2.08c2.237 0 2.708 1.16 2.708 2.146 0 2.106-2.178 2.106-2.767 2.106h-2.02v-4.254zm-77.197.077h2.14c1.844 0 2.707.65 2.707 2.05 0 1.948-1.785 2.164-3.316 2.164h-1.53v-4.214zm65.99-5.717v-1.93h-9.97v1.93h3.927v11.86h2.12V8.037h3.924zM103.77 7.8c1.766 0 3.12.77 3.905 1.52V6.873c-1.393-.808-3.04-1.005-3.964-1.005-4.1 0-7.32 2.8-7.32 7.135 0 4.333 3.22 7.128 7.32 7.128.924 0 2.57-.197 3.965-1.004v-2.44c-.785.747-2.14 1.514-3.905 1.514-3.18 0-5.18-2.223-5.18-5.2s2-5.203 5.18-5.203zM78.556 19.898h7.866v-1.93h-5.75v-4.193h5.24v-2.01h-5.24V8.036h5.75v-1.93h-7.866v13.79zm56.436 0h4.357c2.61 0 4.65-1.398 4.65-4.094 0-2.798-2.178-4.158-4.65-4.158h-2.238v-5.54h-2.12v13.792zm-95.074-1.653c-2.963 0-5.024-2.165-5.024-5.24 0-3.074 2.06-5.243 5.024-5.243 2.924 0 4.985 2.17 4.985 5.245s-2.06 5.24-4.985 5.24zm17.878 1.653h4.12c2.67 0 5.044-1.024 5.044-3.818 0-2.13-1.177-3.016-2.433-3.35 1.374-.65 2.02-1.558 2.02-3.076 0-2.66-2.255-3.548-4.512-3.548h-4.24v13.79zM39.918 5.87c-4.16 0-7.222 3.094-7.222 7.135 0 4.058 3.062 7.128 7.222 7.128 4.1 0 7.182-3.07 7.182-7.128 0-4.04-3.08-7.136-7.182-7.136zM13.226 2.852c5.574 0 10.107 4.554 10.107 10.152 0 5.593-4.533 10.142-10.107 10.142-5.573 0-10.106-4.55-10.106-10.142 0-5.598 4.533-10.152 10.106-10.152zM1 13.005C1 19.7 6.514 25 13.226 25c6.633 0 12.148-5.103 12.148-11.995C25.374 6.125 19.86 1 13.226 1 6.514 1 1 6.322 1 13.005zm12.913 5.2c1.766 0 3.12-.768 3.905-1.516v2.44c-1.393.806-3.042 1.003-3.964 1.003-4.1 0-7.32-2.795-7.32-7.128 0-4.337 3.22-7.136 7.32-7.136.922 0 2.57.196 3.964 1.004V9.32c-.785-.75-2.14-1.518-3.905-1.518-3.18 0-5.18 2.228-5.18 5.204 0 2.976 2 5.2 5.18 5.2z"/></svg>