<svg xmlns="http://www.w3.org/2000/svg" width="95" height="20" viewBox="0 0 95 20">
    <g fill="#1A1919" fill-rule="evenodd">
        <path d="M17.563 9.873c.17-.272.344-.54.526-.808h.107v6.037h2.687V4.852h-2.687l-3.01 4.675c-.17.267-.338.525-.506.774-.168.253-.338.52-.504.797h-.107V4.853h-2.687v10.25h2.687c.506-.714 1-1.443 1.483-2.19.485-.748.973-1.486 1.464-2.214.196-.277.38-.554.547-.826M26.107 10.848h3.998v4.254h2.689V4.852h-2.689v3.9h-3.998v-3.9h-2.688v10.25h2.688v-4.254M40.806 12.755c-.267.196-.618.294-1.052.294H38.02v-2.516h1.713c.45 0 .807.106 1.074.315.265.21.397.524.397.944 0 .446-.132.767-.397.963m3.086-.941c0-1.05-.357-1.864-1.068-2.445-.714-.579-1.67-.87-2.868-.87H38.02V4.853H35.33v10.25h4.744c1.159 0 2.085-.264 2.778-.786.694-.526 1.04-1.36 1.04-2.503M75.73 13.049c-.33.154-.676.243-1.039.272V6.696c.881.072 1.56.41 2.036 1.017.476.61.716 1.36.716 2.254 0 .532-.078 1-.234 1.405a3.19 3.19 0 0 1-.608 1.026 2.71 2.71 0 0 1-.872.65zm-3.563.252a3.183 3.183 0 0 1-1.076-.273 2.7 2.7 0 0 1-.89-.652 3.098 3.098 0 0 1-.603-1.015c-.149-.398-.223-.862-.223-1.394 0-.893.244-1.645.731-2.254.487-.607 1.175-.945 2.061-1.017v6.605zm6.306.458a5.035 5.035 0 0 0 1.118-1.654c.272-.643.412-1.377.412-2.202 0-.768-.135-1.467-.402-2.095a4.876 4.876 0 0 0-1.106-1.624 5.115 5.115 0 0 0-1.686-1.069 6.781 6.781 0 0 0-2.118-.45V.808l-2.524.986v2.87a6.43 6.43 0 0 0-2.104.47 5.583 5.583 0 0 0-1.705 1.092 4.974 4.974 0 0 0-1.13 1.613 5.048 5.048 0 0 0-.413 2.063c0 .825.127 1.562.382 2.213a4.757 4.757 0 0 0 1.089 1.675c.472.47 1.036.833 1.692 1.092a6.974 6.974 0 0 0 2.19.448v4.343l2.543-.986v-3.376a6.418 6.418 0 0 0 2.087-.46 5.15 5.15 0 0 0 1.675-1.093zM91.81 11.372a3.255 3.255 0 0 1-.61 1.026 2.73 2.73 0 0 1-.871.65c-.33.155-.677.245-1.04.273V6.697c.88.07 1.56.409 2.037 1.016.476.61.713 1.36.713 2.254 0 .532-.074 1-.23 1.405zM86.768 13.3a3.2 3.2 0 0 1-1.08-.273 2.694 2.694 0 0 1-.888-.652 3.073 3.073 0 0 1-.604-1.016c-.149-.397-.222-.861-.222-1.393 0-.894.243-1.644.73-2.254.487-.607 1.175-.946 2.064-1.016V13.3zm7.422-1.195c.274-.644.41-1.377.41-2.203 0-.768-.133-1.467-.4-2.095a4.855 4.855 0 0 0-1.107-1.624 5.113 5.113 0 0 0-1.686-1.069 6.747 6.747 0 0 0-2.12-.45V.809l-2.52.986v2.87a6.393 6.393 0 0 0-2.106.471 5.557 5.557 0 0 0-1.703 1.091c-.48.452-.856.992-1.132 1.612a5.053 5.053 0 0 0-.412 2.064c0 .826.126 1.562.382 2.212a4.75 4.75 0 0 0 1.089 1.676c.472.47 1.036.834 1.693 1.092a6.973 6.973 0 0 0 2.19.449v4.342l2.542-.986v-3.376a6.452 6.452 0 0 0 2.086-.46 5.185 5.185 0 0 0 1.675-1.092c.472-.46.845-1.01 1.119-1.654zM.492 2.883h3.913v12.23h2.794V2.884h3.782V.496H.49v2.387M55.077 4.907h-3.065l-3.6 4.355v-4.41h-2.667v10.262h2.666v-4.99l3.516 4.99h3.17l-3.954-5.491 3.934-4.716M62.565 11.236a3.44 3.44 0 0 1-.424.996c-.186.286-.416.51-.692.67a1.84 1.84 0 0 1-.947.241c-.722 0-1.274-.277-1.658-.827-.383-.551-.575-1.33-.575-2.339 0-.892.187-1.634.553-2.22.371-.587.908-.881 1.616-.881.752 0 1.318.291 1.702.87.384.58.574 1.339.574 2.276 0 .432-.05.836-.149 1.214M64.04 6.1a4.272 4.272 0 0 0-1.552-1.06 5.244 5.244 0 0 0-1.985-.366c-.717 0-1.378.122-1.984.367a4.473 4.473 0 0 0-1.564 1.047 4.718 4.718 0 0 0-1.013 1.678c-.238.663-.358 1.415-.358 2.255 0 .809.116 1.543.348 2.2.23.657.56 1.214.982 1.676.423.46.932.817 1.532 1.07.598.25 1.269.376 2.016.376a5.28 5.28 0 0 0 1.985-.367 4.397 4.397 0 0 0 1.563-1.058 4.887 4.887 0 0 0 1.022-1.687c.248-.663.372-1.416.372-2.255 0-.809-.12-1.544-.36-2.2a4.863 4.863 0 0 0-1.004-1.676"/>
    </g>
</svg>
